<svg width="180" height="180" viewBox="0 0 180 180" fill="none" xmlns="http://www.w3.org/2000/svg">
  <defs>
    <linearGradient id="bg" x1="24" y1="18" x2="150" y2="162" gradientUnits="userSpaceOnUse">
      <stop stop-color="#18110B" />
      <stop offset="1" stop-color="#0D0906" />
    </linearGradient>
    <radialGradient id="glow" cx="0" cy="0" r="1" gradientUnits="userSpaceOnUse" gradientTransform="translate(90 90) rotate(90) scale(70)">
      <stop stop-color="#F5CC6B" stop-opacity="0.3" />
      <stop offset="1" stop-color="#F5CC6B" stop-opacity="0" />
    </radialGradient>
    <linearGradient id="gold" x1="57" y1="40" x2="123" y2="140" gradientUnits="userSpaceOnUse">
      <stop stop-color="#FFE19B" />
      <stop offset="0.52" stop-color="#D6A94A" />
      <stop offset="1" stop-color="#9A6B1B" />
    </linearGradient>
  </defs>
  <rect x="8" y="8" width="164" height="164" rx="38" fill="url(#bg)" />
  <rect x="9" y="9" width="162" height="162" rx="37" stroke="#3A2B16" stroke-opacity="0.85" stroke-width="2" />
  <circle cx="90" cy="90" r="54" fill="url(#glow)" />
  <path d="M90 41L128 65V115L90 139L52 115V65L90 41Z" stroke="url(#gold)" stroke-width="8" stroke-linejoin="round" />
  <path d="M90 58L112 72V108L90 122L68 108V72L90 58Z" stroke="url(#gold)" stroke-opacity="0.7" stroke-width="5" stroke-linejoin="round" />
  <path d="M90 74L102 90L90 106L78 90L90 74Z" fill="url(#gold)" />
  <path d="M90 41V58" stroke="#F6D585" stroke-opacity="0.6" stroke-width="4" stroke-linecap="round" />
  <path d="M128 65L112 72" stroke="#F6D585" stroke-opacity="0.45" stroke-width="4" stroke-linecap="round" />
  <path d="M128 115L112 108" stroke="#F6D585" stroke-opacity="0.45" stroke-width="4" stroke-linecap="round" />
  <path d="M90 139V122" stroke="#F6D585" stroke-opacity="0.6" stroke-width="4" stroke-linecap="round" />
  <path d="M52 115L68 108" stroke="#F6D585" stroke-opacity="0.45" stroke-width="4" stroke-linecap="round" />
  <path d="M52 65L68 72" stroke="#F6D585" stroke-opacity="0.45" stroke-width="4" stroke-linecap="round" />
  <circle cx="90" cy="31" r="4" fill="#E8BC5A" fill-opacity="0.8" />
  <circle cx="90" cy="149" r="4" fill="#E8BC5A" fill-opacity="0.6" />
</svg>
